<?xml version="1.0" encoding="UTF-8"?>
<svg xmlns="http://www.w3.org/2000/svg" xmlns:xlink="http://www.w3.org/1999/xlink" width="115px" height="115px" viewBox="0 0 115 115" version="1.1">
<g id="surface1">
<path style=" stroke:none;fill-rule:nonzero;fill:rgb(100%,100%,100%);fill-opacity:1;" d="M 50.792969 76.667969 C 50.792969 70.199219 51.371094 65.546875 52.527344 62.710938 C 53.6875 59.875 56.140625 56.78125 59.894531 53.425781 C 63.171875 50.550781 65.664062 48.054688 67.382812 45.941406 C 69.101562 43.824219 69.957031 41.40625 69.957031 38.691406 C 69.957031 35.417969 68.859375 32.703125 66.664062 30.546875 C 64.46875 28.390625 61.414062 27.3125 57.5 27.3125 C 53.425781 27.3125 50.332031 28.550781 48.214844 31.027344 C 46.101562 33.5 44.601562 36.015625 43.722656 38.574219 L 31.386719 33.300781 C 33.0625 28.191406 36.136719 23.757812 40.609375 20.003906 C 45.082031 16.25 50.710938 14.375 57.5 14.375 C 65.886719 14.375 72.335938 16.710938 76.847656 21.382812 C 81.359375 26.054688 83.613281 31.664062 83.613281 38.214844 C 83.613281 42.207031 82.757812 45.621094 81.039062 48.457031 C 79.320312 51.289062 76.625 54.503906 72.953125 58.097656 C 69.039062 61.851562 66.664062 64.707031 65.824219 66.664062 C 64.988281 68.621094 64.566406 71.953125 64.566406 76.667969 Z M 57.5 105.417969 C 54.863281 105.417969 52.609375 104.476562 50.730469 102.601562 C 48.855469 100.726562 47.917969 98.46875 47.917969 95.832031 C 47.917969 93.199219 48.855469 90.941406 50.730469 89.066406 C 52.609375 87.1875 54.863281 86.25 57.5 86.25 C 60.136719 86.25 62.390625 87.1875 64.269531 89.066406 C 66.144531 90.941406 67.082031 93.199219 67.082031 95.832031 C 67.082031 98.46875 66.144531 100.726562 64.269531 102.601562 C 62.390625 104.476562 60.136719 105.417969 57.5 105.417969 Z M 57.5 105.417969 "/>
</g>
</svg>
